<mxfile host="app.diagrams.net" modified="2022-06-24T17:23:10.885Z" agent="5.0 (Windows)" etag="Y2oR3qPXsrSwoFsLZ_Bl" version="20.0.3" type="github">
  <diagram id="XKDfDnqy39f_5Dwoot7K" name="Service Architecture">
    <mxGraphModel dx="1422" dy="752" grid="1" gridSize="10" guides="1" tooltips="1" connect="1" arrows="1" fold="1" page="1" pageScale="1" pageWidth="850" pageHeight="1100" math="0" shadow="0">
      <root>
        <mxCell id="0" />
        <mxCell id="1" parent="0" />
        <mxCell id="0eKNB3d793XG2okZ5WNV-49" value="" style="rounded=0;whiteSpace=wrap;html=1;fontSize=18;opacity=50;fillColor=#f5f5f5;gradientColor=#b3b3b3;strokeColor=#666666;" parent="1" vertex="1">
          <mxGeometry x="410" y="160" width="390" height="250" as="geometry" />
        </mxCell>
        <mxCell id="0eKNB3d793XG2okZ5WNV-47" value="" style="rounded=0;whiteSpace=wrap;html=1;fontSize=18;opacity=50;fillColor=#f5f5f5;gradientColor=#b3b3b3;strokeColor=#666666;" parent="1" vertex="1">
          <mxGeometry x="40" y="440" width="790" height="640" as="geometry" />
        </mxCell>
        <mxCell id="0eKNB3d793XG2okZ5WNV-4" value="" style="group" parent="1" vertex="1" connectable="0">
          <mxGeometry x="330" y="880" width="210" height="170" as="geometry" />
        </mxCell>
        <mxCell id="0eKNB3d793XG2okZ5WNV-1" value="&lt;b&gt;MongoDB&lt;/b&gt;" style="shape=cylinder3;whiteSpace=wrap;html=1;boundedLbl=1;backgroundOutline=1;size=15;fillColor=#76608a;strokeColor=#432D57;fontColor=#ffffff;" parent="0eKNB3d793XG2okZ5WNV-4" vertex="1">
          <mxGeometry x="40" width="130" height="104.93827160493827" as="geometry" />
        </mxCell>
        <mxCell id="0eKNB3d793XG2okZ5WNV-51" value="&lt;b&gt;MongoDB&lt;/b&gt;" style="shape=cylinder3;whiteSpace=wrap;html=1;boundedLbl=1;backgroundOutline=1;size=15;fillColor=#76608a;strokeColor=#432D57;fontColor=#ffffff;" parent="0eKNB3d793XG2okZ5WNV-4" vertex="1">
          <mxGeometry x="40.5" width="130" height="104.93827160493827" as="geometry" />
        </mxCell>
        <mxCell id="0eKNB3d793XG2okZ5WNV-5" value="&lt;div&gt;&lt;b&gt;Ninja API&lt;/b&gt;&lt;/div&gt;&lt;div&gt;Provides facts based on category&lt;/div&gt;&lt;div&gt;requires API key, and account&lt;br&gt;&lt;/div&gt;" style="ellipse;shape=cloud;whiteSpace=wrap;html=1;" parent="1" vertex="1">
          <mxGeometry x="10" y="260" width="270" height="170" as="geometry" />
        </mxCell>
        <mxCell id="0eKNB3d793XG2okZ5WNV-30" value="" style="group" parent="1" vertex="1" connectable="0">
          <mxGeometry x="103" y="460" width="665" height="360" as="geometry" />
        </mxCell>
        <mxCell id="0eKNB3d793XG2okZ5WNV-21" value="." style="ellipse;whiteSpace=wrap;html=1;fillColor=#d5e8d4;strokeColor=#82b366;opacity=50;" parent="0eKNB3d793XG2okZ5WNV-30" vertex="1">
          <mxGeometry width="665" height="360" as="geometry" />
        </mxCell>
        <mxCell id="0eKNB3d793XG2okZ5WNV-20" value="&lt;div&gt;&lt;b&gt;Subproccess #3&lt;br&gt;&lt;/b&gt;&lt;/div&gt;&lt;div&gt;&lt;b&gt;&lt;br&gt;&lt;/b&gt;&lt;/div&gt;&lt;div&gt;Takes Maps, and replaces nouns and pronouns with llama ones. Uses Lang-Service to determine if statement is grammarly correct&lt;br&gt;&lt;/div&gt;" style="shape=hexagon;perimeter=hexagonPerimeter2;whiteSpace=wrap;html=1;fixedSize=1;fillColor=#f8cecc;strokeColor=#b85450;" parent="0eKNB3d793XG2okZ5WNV-30" vertex="1">
          <mxGeometry x="242.5" y="120" width="180" height="110" as="geometry" />
        </mxCell>
        <mxCell id="0eKNB3d793XG2okZ5WNV-27" value="&lt;div&gt;&lt;b&gt;Subproccess #4&lt;br&gt;&lt;/b&gt;&lt;/div&gt;&lt;div&gt;&lt;b&gt;&lt;br&gt;&lt;/b&gt;&lt;/div&gt;&lt;div&gt;Flask API for providing generated facts to external services. marks Phrases as used&lt;br&gt;&lt;/div&gt;&lt;div&gt;aka: discord or twitter bot&lt;br&gt;&lt;/div&gt;" style="shape=hexagon;perimeter=hexagonPerimeter2;whiteSpace=wrap;html=1;fixedSize=1;fillColor=#bac8d3;strokeColor=#23445d;" parent="0eKNB3d793XG2okZ5WNV-30" vertex="1">
          <mxGeometry x="412.5" y="60" width="180" height="110" as="geometry" />
        </mxCell>
        <mxCell id="0eKNB3d793XG2okZ5WNV-28" value="&lt;div&gt;&lt;b&gt;Subproccess #5&lt;br&gt;&lt;/b&gt;&lt;/div&gt;&lt;div&gt;&lt;b&gt;&lt;br&gt;&lt;/b&gt;&lt;/div&gt;&lt;div&gt;Admin web-interface.&lt;br&gt;track outputs, and rendered facts.&lt;/div&gt;" style="shape=hexagon;perimeter=hexagonPerimeter2;whiteSpace=wrap;html=1;fixedSize=1;fillColor=#eeeeee;strokeColor=#36393d;" parent="0eKNB3d793XG2okZ5WNV-30" vertex="1">
          <mxGeometry x="412.5" y="180" width="180" height="110" as="geometry" />
        </mxCell>
        <mxCell id="0eKNB3d793XG2okZ5WNV-31" value="&lt;font style=&quot;font-size: 18px;&quot;&gt;&lt;b&gt;LlamaFax&lt;/b&gt;&lt;/font&gt;&lt;font size=&quot;3&quot;&gt;&lt;b&gt;.py&lt;/b&gt;&lt;/font&gt;" style="text;html=1;strokeColor=none;fillColor=none;align=center;verticalAlign=middle;whiteSpace=wrap;rounded=0;opacity=50;" parent="0eKNB3d793XG2okZ5WNV-30" vertex="1">
          <mxGeometry x="302.5" y="260" width="60" height="30" as="geometry" />
        </mxCell>
        <mxCell id="0eKNB3d793XG2okZ5WNV-6" value="&lt;div&gt;&lt;b&gt;Subproccess #1&lt;br&gt;&lt;/b&gt;&lt;/div&gt;&lt;div&gt;&lt;b&gt;&lt;br&gt;&lt;/b&gt;&lt;/div&gt;&lt;div&gt;Gets facts from API. &lt;br&gt;&lt;/div&gt;&lt;div&gt;Saves to Mongo DB.&lt;/div&gt;&lt;div&gt;Ensures Fact is unique.&lt;/div&gt;" style="shape=hexagon;perimeter=hexagonPerimeter2;whiteSpace=wrap;html=1;fixedSize=1;fillColor=#dae8fc;strokeColor=#6c8ebf;" parent="0eKNB3d793XG2okZ5WNV-30" vertex="1">
          <mxGeometry x="72.5" y="60" width="180" height="110" as="geometry" />
        </mxCell>
        <mxCell id="0eKNB3d793XG2okZ5WNV-14" value="&lt;div&gt;&lt;b&gt;Subproccess #2&lt;br&gt;&lt;/b&gt;&lt;/div&gt;&lt;div&gt;&lt;b&gt;&lt;br&gt;&lt;/b&gt;&lt;/div&gt;&lt;div&gt;Analyzes sentences via NLK library in python&lt;br&gt;&lt;/div&gt;&lt;div&gt;Saves Map of sentence to DB.&lt;/div&gt;&lt;div&gt;&lt;b&gt;{ &quot;noun&quot; : &quot;house&quot; }&lt;/b&gt;&lt;br&gt;&lt;/div&gt;" style="shape=hexagon;perimeter=hexagonPerimeter2;whiteSpace=wrap;html=1;fixedSize=1;fillColor=#ffe6cc;strokeColor=#d79b00;" parent="0eKNB3d793XG2okZ5WNV-30" vertex="1">
          <mxGeometry x="72.5" y="180" width="180" height="110" as="geometry" />
        </mxCell>
        <mxCell id="0eKNB3d793XG2okZ5WNV-42" style="edgeStyle=orthogonalEdgeStyle;curved=1;rounded=0;orthogonalLoop=1;jettySize=auto;html=1;exitX=0.5;exitY=1;exitDx=0;exitDy=0;entryX=0.5;entryY=0;entryDx=0;entryDy=0;entryPerimeter=0;fontSize=18;startArrow=classic;startFill=1;" parent="1" source="0eKNB3d793XG2okZ5WNV-21" target="0eKNB3d793XG2okZ5WNV-1" edge="1">
          <mxGeometry relative="1" as="geometry" />
        </mxCell>
        <mxCell id="0eKNB3d793XG2okZ5WNV-12" value="" style="endArrow=classic;startArrow=classic;html=1;rounded=0;exitX=0.375;exitY=0;exitDx=0;exitDy=0;entryX=0.659;entryY=0.935;entryDx=0;entryDy=0;entryPerimeter=0;" parent="1" source="0eKNB3d793XG2okZ5WNV-6" target="0eKNB3d793XG2okZ5WNV-5" edge="1">
          <mxGeometry width="50" height="50" relative="1" as="geometry">
            <mxPoint x="189.5" y="650" as="sourcePoint" />
            <mxPoint x="180" y="490" as="targetPoint" />
          </mxGeometry>
        </mxCell>
        <mxCell id="0eKNB3d793XG2okZ5WNV-45" value="" style="endArrow=classic;startArrow=classic;html=1;rounded=0;fontSize=18;curved=1;exitX=0.5;exitY=0;exitDx=0;exitDy=0;entryX=0.5;entryY=1;entryDx=0;entryDy=0;" parent="1" source="0eKNB3d793XG2okZ5WNV-27" target="0eKNB3d793XG2okZ5WNV-44" edge="1">
          <mxGeometry width="50" height="50" relative="1" as="geometry">
            <mxPoint x="680" y="470" as="sourcePoint" />
            <mxPoint x="730" y="420" as="targetPoint" />
          </mxGeometry>
        </mxCell>
        <mxCell id="0eKNB3d793XG2okZ5WNV-3" value="&lt;div&gt;&lt;b&gt;&amp;gt; Fact Templates from ninja api&lt;/b&gt;&lt;/div&gt;&lt;div&gt;&lt;b&gt;&amp;gt;Llama related nouns and pronouns&lt;br&gt;&lt;/b&gt;&lt;/div&gt;&lt;div&gt;&lt;b&gt;&amp;gt; Previous successful renders&lt;/b&gt;&lt;/div&gt;&lt;div&gt;&lt;b&gt;&amp;gt; Custom Corpus Data&lt;br&gt;&lt;/b&gt;&lt;/div&gt;" style="rounded=0;whiteSpace=wrap;html=1;fillColor=#e1d5e7;strokeColor=#9673a6;" parent="1" vertex="1">
          <mxGeometry x="330" y="979.9993827160494" width="210" height="83.9506172839506" as="geometry" />
        </mxCell>
        <mxCell id="0eKNB3d793XG2okZ5WNV-48" value="&lt;br&gt;&lt;div&gt;&lt;font style=&quot;font-size: 24px;&quot;&gt;&lt;font style=&quot;font-size: 24px;&quot;&gt;Docker &lt;/font&gt;Container&lt;/font&gt;&lt;/div&gt;" style="text;html=1;strokeColor=none;fillColor=none;align=center;verticalAlign=middle;whiteSpace=wrap;rounded=0;fontSize=18;opacity=50;" parent="1" vertex="1">
          <mxGeometry x="740" y="1020" width="60" height="30" as="geometry" />
        </mxCell>
        <mxCell id="0eKNB3d793XG2okZ5WNV-43" value="" style="ellipse;whiteSpace=wrap;html=1;fontSize=18;fillColor=#fad9d5;strokeColor=#ae4132;opacity=50;" parent="1" vertex="1">
          <mxGeometry x="460" y="180" width="290" height="210" as="geometry" />
        </mxCell>
        <mxCell id="0eKNB3d793XG2okZ5WNV-44" value="&lt;div&gt;&lt;b&gt;Discord / Twitter API&lt;br&gt;&lt;/b&gt;&lt;/div&gt;&lt;div&gt;&lt;b&gt;&lt;br&gt;&lt;/b&gt;&lt;/div&gt;&lt;div&gt;Uses an API generated from flask server.&lt;/div&gt;&lt;div&gt;Calls API to retrieve highest ranked Phrases.&lt;br&gt;&lt;/div&gt;" style="shape=hexagon;perimeter=hexagonPerimeter2;whiteSpace=wrap;html=1;fixedSize=1;fillColor=#f8cecc;strokeColor=#b85450;" parent="1" vertex="1">
          <mxGeometry x="515" y="230" width="180" height="110" as="geometry" />
        </mxCell>
        <mxCell id="0eKNB3d793XG2okZ5WNV-50" value="&lt;font style=&quot;font-size: 14px;&quot;&gt;&lt;br&gt;&lt;/font&gt;&lt;div&gt;&lt;font style=&quot;font-size: 14px;&quot;&gt;&lt;font style=&quot;font-size: 24px;&quot;&gt;&lt;font style=&quot;font-size: 14px;&quot;&gt;Docker&lt;/font&gt; &lt;/font&gt;Container&lt;/font&gt;&lt;/div&gt;" style="text;html=1;strokeColor=none;fillColor=none;align=center;verticalAlign=middle;whiteSpace=wrap;rounded=0;fontSize=18;opacity=50;" parent="1" vertex="1">
          <mxGeometry x="660" y="370" width="140" height="30" as="geometry" />
        </mxCell>
      </root>
    </mxGraphModel>
  </diagram>
</mxfile>
